name C:/MyDriveSym/Projects/mobilecap/Data\Session20210823_0002\mocap\ForceDataProcessed\walking1_forces.mot
datacolumns 19
datarows 24
range 1.07200000 1.08350000
endheader 
time	R_ground_force_vx	R_ground_force_vy	R_ground_force_vz	R_ground_force_px	R_ground_force_py	R_ground_force_pz	R_ground_torque_x	R_ground_torque_y	R_ground_torque_z	L_ground_force_vx	L_ground_force_vy	L_ground_force_vz	L_ground_force_px	L_ground_force_py	L_ground_force_pz	L_ground_torque_x	L_ground_torque_y	L_ground_torque_z	
          1.07200000	          0.00000000	          0.00000000	          0.00000000	          1.31540700	          0.00000000	         -0.14059900	          0.00000000	          0.00000000	          0.00000000	         33.43539200	        603.83491900	         35.75494500	          1.01576700	          0.00600000	         -0.29477500	          0.00000000	          4.22088600	          0.00000000	
          1.07250000	          0.00000000	          0.00000000	          0.00000000	          1.31672500	          0.00000000	         -0.14060200	          0.00000000	          0.00000000	          0.00000000	         33.71701700	        604.46548200	         35.86487000	          1.01582600	          0.00600000	         -0.29478100	          0.00000000	          4.21542900	          0.00000000	
          1.07300000	          0.00000000	          0.00000000	          0.00000000	          1.31804300	          0.00000000	         -0.14060500	          0.00000000	          0.00000000	          0.00000000	         33.99912500	        605.09404800	         35.97466400	          1.01588600	          0.00600000	         -0.29478600	          0.00000000	          4.20989800	          0.00000000	
          1.07350000	          0.00000000	          0.00000000	          0.00000000	          1.31936100	          0.00000000	         -0.14060700	          0.00000000	          0.00000000	          0.00000000	         34.28171100	        605.72054600	         36.08431600	          1.01594600	          0.00600000	         -0.29479100	          0.00000000	          4.20429400	          0.00000000	
          1.07400000	          0.00000000	          0.00000000	          0.00000000	          1.32068000	          0.00000000	         -0.14061000	          0.00000000	          0.00000000	          0.00000000	         34.56476900	        606.34490500	         36.19381400	          1.01600600	          0.00600000	         -0.29479600	          0.00000000	          4.19861700	          0.00000000	
          1.07450000	          0.00000000	          0.00000000	          0.00000000	          1.32199800	          0.00000000	         -0.14061300	          0.00000000	          0.00000000	          0.00000000	         34.84829200	        606.96705300	         36.30314500	          1.01606600	          0.00600000	         -0.29480100	          0.00000000	          4.19286900	          0.00000000	
          1.07500000	          0.00000000	          0.00000000	          0.00000000	          1.32331600	          0.00000000	         -0.14061500	          0.00000000	          0.00000000	          0.00000000	         35.13227500	        607.58691800	         36.41229900	          1.01612600	          0.00600000	         -0.29480700	          0.00000000	          4.18704800	          0.00000000	
          1.07550000	          0.00000000	          0.00000000	          0.00000000	          1.32463400	          0.00000000	         -0.14061800	          0.00000000	          0.00000000	          0.00000000	         35.41671100	        608.20443000	         36.52126300	          1.01618600	          0.00600000	         -0.29481200	          0.00000000	          4.18115700	          0.00000000	
          1.07600000	          0.00000000	          0.00000000	          0.00000000	          1.32595200	          0.00000000	         -0.14062000	          0.00000000	          0.00000000	          0.00000000	         35.70159300	        608.81951400	         36.63002600	          1.01624600	          0.00600000	         -0.29481700	          0.00000000	          4.17519500	          0.00000000	
          1.07650000	          0.00000000	          0.00000000	          0.00000000	          1.32727000	          0.00000000	         -0.14062300	          0.00000000	          0.00000000	          0.00000000	         35.98691600	        609.43210000	         36.73857700	          1.01630600	          0.00600000	         -0.29482200	          0.00000000	          4.16916200	          0.00000000	
          1.07700000	          0.00000000	          0.00000000	          0.00000000	          1.32858800	          0.00000000	         -0.14062600	          0.00000000	          0.00000000	          0.00000000	         36.27267300	        610.04211400	         36.84690200	          1.01636700	          0.00600000	         -0.29482700	          0.00000000	          4.16306000	          0.00000000	
          1.07750000	          0.00000000	          0.00000000	          0.00000000	          1.32990600	          0.00000000	         -0.14062800	          0.00000000	          0.00000000	          0.00000000	         36.55885600	        610.64948400	         36.95499100	          1.01642700	          0.00600000	         -0.29483100	          0.00000000	          4.15688900	          0.00000000	
          1.07800000	          0.00000000	          0.00000000	          0.00000000	          1.33122400	          0.00000000	         -0.14063100	          0.00000000	          0.00000000	          0.00000000	         36.84546000	        611.25413700	         37.06283200	          1.01648800	          0.00600000	         -0.29483600	          0.00000000	          4.15064900	          0.00000000	
          1.07850000	          0.00000000	          0.00000000	          0.00000000	          1.33254300	          0.00000000	         -0.14063300	          0.00000000	          0.00000000	          0.00000000	         37.13247700	        611.85599800	         37.17041200	          1.01654800	          0.00600000	         -0.29484100	          0.00000000	          4.14434000	          0.00000000	
          1.07900000	          0.00000000	          0.00000000	          0.00000000	          1.33386100	          0.00000000	         -0.14063600	          0.00000000	          0.00000000	          0.00000000	         37.41990000	        612.45499600	         37.27772100	          1.01660900	          0.00600000	         -0.29484600	          0.00000000	          4.13796400	          0.00000000	
          1.07950000	          0.00000000	          0.00000000	          0.00000000	          1.33517900	          0.00000000	         -0.14063900	          0.00000000	          0.00000000	          0.00000000	         37.70772300	        613.05105500	         37.38474600	          1.01667000	          0.00600000	         -0.29485100	          0.00000000	          4.13152100	          0.00000000	
          1.08000000	          0.00000000	          0.00000000	          0.00000000	          1.33649700	          0.00000000	         -0.14064100	          0.00000000	          0.00000000	          0.00000000	         37.99593900	        613.64410300	         37.49147500	          1.01673100	          0.00600000	         -0.29485600	          0.00000000	          4.12501100	          0.00000000	
          1.08050000	          0.00000000	          0.00000000	          0.00000000	          1.33781500	          0.00000000	         -0.14064400	          0.00000000	          0.00000000	          0.00000000	         38.28454000	        614.23406500	         37.59789800	          1.01679200	          0.00600000	         -0.29486000	          0.00000000	          4.11843500	          0.00000000	
          1.08100000	          0.00000000	          0.00000000	          0.00000000	          1.33913300	          0.00000000	         -0.14064600	          0.00000000	          0.00000000	          0.00000000	         38.57351800	        614.82086700	         37.70400100	          1.01685300	          0.00600000	         -0.29486500	          0.00000000	          4.11179300	          0.00000000	
          1.08150000	          0.00000000	          0.00000000	          0.00000000	          1.34045100	          0.00000000	         -0.14064900	          0.00000000	          0.00000000	          0.00000000	         38.86286700	        615.40443400	         37.80977300	          1.01691500	          0.00600000	         -0.29486900	          0.00000000	          4.10508600	          0.00000000	
          1.08200000	          0.00000000	          0.00000000	          0.00000000	          1.34176900	          0.00000000	         -0.14065200	          0.00000000	          0.00000000	          0.00000000	         39.15258000	        615.98469200	         37.91520300	          1.01697600	          0.00600000	         -0.29487400	          0.00000000	          4.09831400	          0.00000000	
          1.08250000	          0.00000000	          0.00000000	          0.00000000	          1.34308700	          0.00000000	         -0.14065400	          0.00000000	          0.00000000	          0.00000000	         39.44264800	        616.56156700	         38.02027900	          1.01703700	          0.00600000	         -0.29487900	          0.00000000	          4.09147800	          0.00000000	
          1.08300000	          0.00000000	          0.00000000	          0.00000000	          1.34440600	          0.00000000	         -0.14065700	          0.00000000	          0.00000000	          0.00000000	         39.73306300	        617.13498200	         38.12498900	          1.01709900	          0.00600000	         -0.29488300	          0.00000000	          4.08457900	          0.00000000	
          1.08350000	          0.00000000	          0.00000000	          0.00000000	          1.34572400	          0.00000000	         -0.14065900	          0.00000000	          0.00000000	          0.00000000	         40.02381900	        617.70486300	         38.22932100	          1.01716100	          0.00600000	         -0.29488700	          0.00000000	          4.07761600	          0.00000000	
